<mxfile host="Electron" agent="Mozilla/5.0 (X11; Linux x86_64) AppleWebKit/537.36 (KHTML, like Gecko) draw.io/24.7.8 Chrome/128.0.6613.36 Electron/32.0.1 Safari/537.36" version="24.7.8">
  <diagram name="Page-1" id="Y8P_ToEHPjoud8pdxcnv">
    <mxGraphModel dx="1386" dy="838" grid="1" gridSize="10" guides="1" tooltips="1" connect="1" arrows="1" fold="1" page="1" pageScale="1" pageWidth="1169" pageHeight="827" math="0" shadow="0">
      <root>
        <mxCell id="0" />
        <mxCell id="1" parent="0" />
        <mxCell id="N4C-Un-x5EWSpbtfsNaI-2" value="KiteSimulators" style="rounded=1;whiteSpace=wrap;html=1;fontSize=18;" parent="1" vertex="1">
          <mxGeometry x="410" y="200" width="210" height="50" as="geometry" />
        </mxCell>
        <mxCell id="N4C-Un-x5EWSpbtfsNaI-3" value="KiteControllers" style="rounded=0;whiteSpace=wrap;html=1;fontSize=18;fillColor=#d5e8d4;strokeColor=#82b366;" parent="1" vertex="1">
          <mxGeometry x="240" y="290" width="220" height="50" as="geometry" />
        </mxCell>
        <mxCell id="N4C-Un-x5EWSpbtfsNaI-4" value="SymbolicAWEModels" style="rounded=0;whiteSpace=wrap;html=1;fontSize=18;fillColor=#d5e8d4;strokeColor=#82b366;" parent="1" vertex="1">
          <mxGeometry x="240" y="370" width="412" height="40" as="geometry" />
        </mxCell>
        <mxCell id="N4C-Un-x5EWSpbtfsNaI-5" value="&lt;font style=&quot;font-size: 18px;&quot;&gt;KiteViewers&lt;/font&gt;" style="rounded=0;whiteSpace=wrap;html=1;fillColor=#d5e8d4;strokeColor=#82b366;" parent="1" vertex="1">
          <mxGeometry x="663" y="370" width="104" height="40" as="geometry" />
        </mxCell>
        <mxCell id="N4C-Un-x5EWSpbtfsNaI-6" value="KitePodModels" style="rounded=0;whiteSpace=wrap;html=1;fontSize=18;fillColor=#d5e8d4;strokeColor=#82b366;" parent="1" vertex="1">
          <mxGeometry x="240" y="440" width="130" height="50" as="geometry" />
        </mxCell>
        <mxCell id="N4C-Un-x5EWSpbtfsNaI-7" value="Winch&lt;br&gt;Models" style="rounded=0;whiteSpace=wrap;html=1;fontSize=18;fillColor=#d5e8d4;strokeColor=#82b366;" parent="1" vertex="1">
          <mxGeometry x="390" y="440" width="80" height="50" as="geometry" />
        </mxCell>
        <mxCell id="N4C-Un-x5EWSpbtfsNaI-8" value="Atmospheric&lt;br style=&quot;font-size: 18px;&quot;&gt;Models" style="rounded=0;whiteSpace=wrap;html=1;fontSize=18;fillColor=#d5e8d4;strokeColor=#82b366;" parent="1" vertex="1">
          <mxGeometry x="480" y="440" width="120" height="50" as="geometry" />
        </mxCell>
        <mxCell id="N4C-Un-x5EWSpbtfsNaI-9" value="KiteUtils" style="rounded=0;whiteSpace=wrap;html=1;fontSize=18;fillColor=#d5e8d4;strokeColor=#82b366;" parent="1" vertex="1">
          <mxGeometry x="240" y="520" width="530" height="30" as="geometry" />
        </mxCell>
        <mxCell id="N4C-Un-x5EWSpbtfsNaI-10" value="VortexStep&lt;br&gt;Method" style="rounded=0;whiteSpace=wrap;html=1;fontSize=18;fillColor=#f8cecc;strokeColor=#b85450;" parent="1" vertex="1">
          <mxGeometry x="610" y="440" width="100" height="50" as="geometry" />
        </mxCell>
        <mxCell id="N4C-Un-x5EWSpbtfsNaI-11" value="" style="shape=flexArrow;endArrow=classic;html=1;rounded=0;exitX=0.75;exitY=1;exitDx=0;exitDy=0;endSize=5;" parent="1" edge="1">
          <mxGeometry width="50" height="50" relative="1" as="geometry">
            <mxPoint x="739.5" y="410" as="sourcePoint" />
            <mxPoint x="740" y="520" as="targetPoint" />
          </mxGeometry>
        </mxCell>
        <mxCell id="N4C-Un-x5EWSpbtfsNaI-14" value="" style="shape=flexArrow;endArrow=classic;html=1;rounded=0;exitX=0.5;exitY=1;exitDx=0;exitDy=0;entryX=0.565;entryY=0.033;entryDx=0;entryDy=0;entryPerimeter=0;endSize=5;" parent="1" source="N4C-Un-x5EWSpbtfsNaI-8" target="N4C-Un-x5EWSpbtfsNaI-9" edge="1">
          <mxGeometry width="50" height="50" relative="1" as="geometry">
            <mxPoint x="515" y="620" as="sourcePoint" />
            <mxPoint x="550" y="520" as="targetPoint" />
          </mxGeometry>
        </mxCell>
        <mxCell id="N4C-Un-x5EWSpbtfsNaI-15" value="" style="shape=flexArrow;endArrow=classic;html=1;rounded=0;exitX=0.5;exitY=1;exitDx=0;exitDy=0;entryX=0.359;entryY=0.017;entryDx=0;entryDy=0;entryPerimeter=0;endSize=5;" parent="1" source="N4C-Un-x5EWSpbtfsNaI-7" target="N4C-Un-x5EWSpbtfsNaI-9" edge="1">
          <mxGeometry width="50" height="50" relative="1" as="geometry">
            <mxPoint x="480" y="620" as="sourcePoint" />
            <mxPoint x="530" y="570" as="targetPoint" />
          </mxGeometry>
        </mxCell>
        <mxCell id="N4C-Un-x5EWSpbtfsNaI-16" value="" style="shape=flexArrow;endArrow=classic;html=1;rounded=0;entryX=0.25;entryY=0;entryDx=0;entryDy=0;exitX=0.957;exitY=1;exitDx=0;exitDy=0;exitPerimeter=0;endSize=5;" parent="1" source="N4C-Un-x5EWSpbtfsNaI-4" target="N4C-Un-x5EWSpbtfsNaI-10" edge="1">
          <mxGeometry width="50" height="50" relative="1" as="geometry">
            <mxPoint x="630" y="411" as="sourcePoint" />
            <mxPoint x="620" y="400" as="targetPoint" />
          </mxGeometry>
        </mxCell>
        <mxCell id="N4C-Un-x5EWSpbtfsNaI-17" value="" style="endArrow=classic;html=1;rounded=0;exitX=0.786;exitY=1;exitDx=0;exitDy=0;exitPerimeter=0;entryX=0.5;entryY=0;entryDx=0;entryDy=0;" parent="1" source="N4C-Un-x5EWSpbtfsNaI-2" target="N4C-Un-x5EWSpbtfsNaI-5" edge="1">
          <mxGeometry width="50" height="50" relative="1" as="geometry">
            <mxPoint x="560" y="450" as="sourcePoint" />
            <mxPoint x="610" y="400" as="targetPoint" />
            <Array as="points">
              <mxPoint x="575" y="270" />
              <mxPoint x="715" y="270" />
            </Array>
          </mxGeometry>
        </mxCell>
        <mxCell id="N4C-Un-x5EWSpbtfsNaI-18" value="" style="endArrow=classic;html=1;rounded=0;exitX=0.543;exitY=1.01;exitDx=0;exitDy=0;exitPerimeter=0;entryX=0.691;entryY=0;entryDx=0;entryDy=0;entryPerimeter=0;" parent="1" source="N4C-Un-x5EWSpbtfsNaI-2" target="N4C-Un-x5EWSpbtfsNaI-4" edge="1">
          <mxGeometry width="50" height="50" relative="1" as="geometry">
            <mxPoint x="560" y="450" as="sourcePoint" />
            <mxPoint x="523" y="370" as="targetPoint" />
          </mxGeometry>
        </mxCell>
        <mxCell id="uQSQgJfefN-RtMgLlMw3-1" value="" style="endArrow=classic;html=1;rounded=0;entryX=0.5;entryY=0;entryDx=0;entryDy=0;exitX=0.25;exitY=1;exitDx=0;exitDy=0;" edge="1" parent="1" source="N4C-Un-x5EWSpbtfsNaI-2" target="N4C-Un-x5EWSpbtfsNaI-3">
          <mxGeometry width="50" height="50" relative="1" as="geometry">
            <mxPoint x="560" y="460" as="sourcePoint" />
            <mxPoint x="610" y="410" as="targetPoint" />
            <Array as="points">
              <mxPoint x="463" y="270" />
              <mxPoint x="350" y="270" />
            </Array>
          </mxGeometry>
        </mxCell>
        <mxCell id="uQSQgJfefN-RtMgLlMw3-2" value="" style="shape=flexArrow;endArrow=classic;html=1;rounded=0;exitX=0.5;exitY=1;exitDx=0;exitDy=0;endSize=5;" edge="1" parent="1" source="N4C-Un-x5EWSpbtfsNaI-3">
          <mxGeometry width="50" height="50" relative="1" as="geometry">
            <mxPoint x="560" y="460" as="sourcePoint" />
            <mxPoint x="350" y="370" as="targetPoint" />
          </mxGeometry>
        </mxCell>
        <mxCell id="uQSQgJfefN-RtMgLlMw3-3" value="" style="shape=flexArrow;endArrow=classic;html=1;rounded=0;exitX=0.5;exitY=1;exitDx=0;exitDy=0;endSize=5;" edge="1" parent="1">
          <mxGeometry width="50" height="50" relative="1" as="geometry">
            <mxPoint x="310" y="410" as="sourcePoint" />
            <mxPoint x="310" y="440" as="targetPoint" />
          </mxGeometry>
        </mxCell>
        <mxCell id="uQSQgJfefN-RtMgLlMw3-4" value="" style="shape=flexArrow;endArrow=classic;html=1;rounded=0;exitX=0.5;exitY=1;exitDx=0;exitDy=0;endSize=5;" edge="1" parent="1">
          <mxGeometry width="50" height="50" relative="1" as="geometry">
            <mxPoint x="429.75" y="410" as="sourcePoint" />
            <mxPoint x="429.75" y="440" as="targetPoint" />
          </mxGeometry>
        </mxCell>
        <mxCell id="uQSQgJfefN-RtMgLlMw3-5" value="" style="shape=flexArrow;endArrow=classic;html=1;rounded=0;exitX=0.5;exitY=1;exitDx=0;exitDy=0;endSize=5;" edge="1" parent="1">
          <mxGeometry width="50" height="50" relative="1" as="geometry">
            <mxPoint x="539.75" y="410" as="sourcePoint" />
            <mxPoint x="539.75" y="440" as="targetPoint" />
          </mxGeometry>
        </mxCell>
        <mxCell id="uQSQgJfefN-RtMgLlMw3-6" value="" style="shape=flexArrow;endArrow=classic;html=1;rounded=0;exitX=0.5;exitY=1;exitDx=0;exitDy=0;entryX=0.359;entryY=0.017;entryDx=0;entryDy=0;entryPerimeter=0;endSize=5;" edge="1" parent="1">
          <mxGeometry width="50" height="50" relative="1" as="geometry">
            <mxPoint x="310" y="490" as="sourcePoint" />
            <mxPoint x="310" y="521" as="targetPoint" />
          </mxGeometry>
        </mxCell>
      </root>
    </mxGraphModel>
  </diagram>
</mxfile>
